<?xml version="1.0" encoding="iso-8859-1"?>
<!-- Generator: Adobe Illustrator 19.0.0, SVG Export Plug-In . SVG Version: 6.00 Build 0)  -->
<svg version="1.1" id="Capa_1" xmlns="http://www.w3.org/2000/svg" xmlns:xlink="http://www.w3.org/1999/xlink" x="0px" y="0px"
	 viewBox="0 0 468.42 468.42" style="enable-background:new 0 0 468.42 468.42;" xml:space="preserve">
<path style="fill:#E1E6E9;" d="M468.42,87.343v108.644l-54.946,43.707l-24.351,19.356L254.879,364.572l-50.576,39.961
	c0,0-101.151,81.171-184.82,18.107c-12.488-9.366-19.356-24.976-19.356-40.585v-91.161c0,0-7.493-41.834,92.41-98.654L468.42,87.343
	z"/>
<path style="fill:#EBF0F3;" d="M91.288,192.241c-50.576,32.468-74.302,54.946-84.293,69.307
	c-7.493,10.615-6.244,24.351,3.746,33.717c105.522,99.902,243.512-44.956,243.512-44.956L91.288,192.241z"/>
<polygon style="fill:#27A2DB;" points="468.42,87.343 468.42,195.987 413.474,239.694 412.225,240.319 392.869,255.304 
	389.123,259.05 254.879,364.572 251.132,252.806 392.869,144.787 251.132,252.182 91.913,192.241 231.776,77.353 249.259,63.616 
	299.835,21.782 468.42,87.343 411.601,130.426 411.601,130.426 392.869,144.163 411.601,130.426 "/>
<polygon style="fill:#2D93BA;" points="468.42,87.343 468.42,195.987 413.474,239.694 412.225,240.319 392.869,255.304 
	389.123,259.05 254.879,364.572 251.132,252.806 392.869,144.163 411.601,130.426 "/>
<polygon style="fill:#FCD462;" points="412.225,130.426 412.225,240.319 392.869,255.304 392.869,143.538 231.776,77.353 
	249.259,63.616 411.601,130.426 411.601,130.426 "/>
<g>
</g>
<g>
</g>
<g>
</g>
<g>
</g>
<g>
</g>
<g>
</g>
<g>
</g>
<g>
</g>
<g>
</g>
<g>
</g>
<g>
</g>
<g>
</g>
<g>
</g>
<g>
</g>
<g>
</g>
</svg>
